<?xml version="1.0" standalone="no"?>
<!DOCTYPE svg PUBLIC "-//W3C//DTD SVG 20010904//EN"
 "http://www.w3.org/TR/2001/REC-SVG-20010904/DTD/svg10.dtd">
<svg version="1.0" xmlns="http://www.w3.org/2000/svg"
 width="300.000000pt" height="300.000000pt" viewBox="0 0 300.000000 300.000000"
 preserveAspectRatio="xMidYMid meet">
<metadata>
Created by potrace 1.11, written by Peter Selinger 2001-2013
</metadata>
<g transform="translate(0.000000,300.000000) scale(0.100000,-0.100000)"
fill="#000000" stroke="none">
<path d="M0 2124 c0 -858 0 -875 19 -869 13 4 24 -1 35 -17 25 -35 20 -57 -19
-75 -28 -13 -35 -23 -35 -44 l0 -28 52 16 c51 15 53 14 70 -7 10 -12 18 -28
18 -35 0 -7 -29 -31 -65 -54 -101 -63 -86 -79 32 -36 l68 25 23 -26 c13 -15
22 -34 20 -43 -2 -9 -36 -38 -76 -65 -43 -28 -70 -52 -64 -58 10 -10 80 13
127 42 40 25 77 26 98 2 28 -31 20 -48 -53 -113 -65 -59 -81 -86 -42 -72 24 9
102 62 133 90 30 27 66 24 95 -8 17 -19 17 -22 -5 -66 -23 -49 -23 -57 2 -47
15 6 57 79 57 100 0 6 -44 49 -98 96 -113 98 -212 223 -237 299 -15 45 -16 58
-4 106 10 43 10 64 1 99 -7 24 -12 67 -12 95 0 45 2 51 18 47 18 -5 18 -3 5
34 -12 36 -11 77 4 131 5 18 5 18 25 0 20 -18 20 -18 12 17 -5 19 -9 65 -9
102 1 53 5 72 19 85 13 13 20 15 23 6 3 -7 13 -23 24 -35 l20 -23 -8 25 c-4
14 -8 54 -8 90 1 53 6 75 30 120 35 64 60 75 70 31 12 -55 22 -42 27 32 6 85
30 139 85 187 l38 34 5 -71 c5 -77 20 -111 20 -46 0 100 59 202 139 238 52 23
62 14 51 -45 -5 -25 -9 -72 -9 -105 l1 -60 19 78 c30 124 67 180 144 219 113
59 130 44 77 -64 -38 -78 -52 -119 -66 -196 -9 -49 10 -30 29 31 26 78 92 201
134 249 37 41 38 41 127 49 49 4 116 15 149 25 41 12 93 18 165 18 72 0 124
-6 165 -18 33 -10 100 -21 149 -25 89 -8 90 -8 127 -49 42 -48 108 -171 134
-249 20 -64 36 -78 28 -26 -9 59 -42 153 -74 210 -16 29 -29 57 -29 62 0 35
98 7 159 -46 51 -43 76 -90 100 -191 l19 -77 1 60 c0 33 -4 80 -9 105 -11 59
-1 68 51 45 80 -36 139 -138 139 -238 0 -65 15 -31 20 46 l5 71 38 -34 c55
-48 79 -102 85 -187 5 -74 15 -87 27 -32 10 44 35 33 70 -31 24 -46 29 -67 30
-125 0 -38 -4 -79 -8 -90 -8 -18 -6 -17 11 3 11 12 22 28 25 35 3 9 10 7 23
-6 14 -13 18 -32 19 -85 0 -37 -3 -82 -8 -101 -7 -33 -7 -34 12 -17 18 17 19
17 24 -1 15 -54 16 -95 4 -131 -13 -37 -13 -39 6 -34 18 5 19 1 12 -69 -7 -78
-8 -137 -3 -216 6 -93 -96 -240 -260 -377 -45 -37 -82 -73 -82 -79 0 -22 41
-95 57 -101 25 -10 25 -2 2 47 -22 44 -22 47 -5 66 35 39 59 35 137 -23 72
-54 105 -71 114 -57 2 4 -27 36 -65 70 -72 64 -83 87 -52 113 30 27 48 27 93
1 125 -72 180 -61 68 14 -41 26 -75 55 -77 64 -2 9 7 28 20 43 l23 26 68 -25
c118 -43 132 -27 32 37 -36 23 -65 47 -65 54 0 6 8 22 18 34 17 21 19 22 70 7
l52 -16 0 28 c0 22 -8 31 -36 44 -32 16 -35 21 -29 45 9 38 25 53 46 47 18 -6
19 20 19 869 l0 876 -1500 0 -1500 0 0 -876z"/>
<path d="M1364 2562 c-185 -66 -285 -181 -301 -346 -7 -79 5 -108 95 -218 137
-169 185 -274 204 -445 9 -78 9 -124 0 -200 -19 -152 -30 -189 -78 -256 -117
-165 -118 -166 -122 -226 -5 -70 10 -104 77 -176 26 -27 70 -90 97 -139 115
-206 215 -208 325 -5 24 46 67 108 95 139 66 71 84 108 84 167 0 59 -19 99
-93 195 -70 91 -84 125 -102 246 -43 286 7 465 197 700 90 110 102 139 95 218
-15 157 -114 276 -282 340 -106 40 -190 42 -291 6z m5 -1688 c35 -45 52 -164
23 -164 -9 0 -85 106 -95 133 -9 25 9 57 33 57 10 0 28 -12 39 -26z m325 10
c20 -20 20 -33 -2 -65 -9 -15 -30 -45 -45 -68 -15 -23 -33 -40 -40 -38 -31 11
8 165 45 180 21 9 26 8 42 -9z"/>
<path d="M1026 1708 c9 -79 32 -112 80 -119 21 -3 47 -10 57 -14 17 -7 18 -4
12 51 -13 104 -21 114 -113 128 l-43 6 7 -52z"/>
<path d="M1902 1743 c-51 -5 -66 -28 -77 -117 -7 -58 -7 -59 17 -52 12 4 36 9
51 12 16 2 33 6 38 10 17 10 36 58 42 107 6 41 4 47 -11 45 -9 -1 -36 -3 -60
-5z"/>
<path d="M934 1362 c-30 -24 -84 -102 -84 -121 0 -9 -16 -47 -35 -85 -27 -53
-35 -82 -35 -122 0 -30 -8 -70 -20 -95 -11 -25 -20 -66 -20 -95 0 -119 -83
-264 -190 -333 -170 -110 -332 -89 -482 63 l-68 68 0 -321 0 -321 1500 0 1500
0 0 320 0 321 -67 -68 c-120 -120 -234 -156 -371 -114 -166 50 -302 222 -302
384 0 30 -9 70 -20 96 -12 25 -20 65 -20 95 0 40 -8 69 -35 122 -19 38 -35 76
-35 85 0 20 -61 106 -88 125 -20 14 -22 13 -28 -13 -8 -40 -26 -92 -72 -213
-32 -82 -42 -125 -47 -195 -10 -143 -26 -183 -98 -262 -35 -38 -83 -105 -107
-148 -74 -134 -148 -187 -239 -170 -76 14 -116 54 -186 180 -21 39 -64 98 -97
132 -74 78 -88 112 -99 242 -10 117 -21 157 -72 281 -19 47 -38 101 -42 120
-12 55 -17 61 -41 42z"/>
</g>
</svg>
